<?xml version="1.0" encoding="UTF-8" standalone="no"?>
<!DOCTYPE svg PUBLIC "-//W3C//DTD SVG 1.1//EN" "http://www.w3.org/Graphics/SVG/1.1/DTD/svg11.dtd">
<svg width="100%" height="100%" viewBox="0 0 112 92" version="1.1" xmlns="http://www.w3.org/2000/svg" xmlns:xlink="http://www.w3.org/1999/xlink" xml:space="preserve" xmlns:serif="http://www.serif.com/" style="fill-rule:evenodd;clip-rule:evenodd;stroke-linecap:round;stroke-linejoin:round;stroke-miterlimit:1.5;">
    <g transform="matrix(1,0,0,1,-925,-609)">
        <g>
            <g transform="matrix(-0.112363,-0.993667,-0.993667,0.112363,1760.31,1542.08)">
                <path d="M926.025,624.117C939.179,629.143 993.979,680.583 1010,685.917C981.688,696.25 922.467,637.734 926.025,624.117Z" style="fill:rgb(40,117,36);stroke:rgb(40,117,36);stroke-width:1px;"/>
                <path d="M926.025,624.175C931.25,629.53 937.963,634.429 940.525,639.979C942.925,645.179 945.725,648.779 951.725,651.779C957.725,654.779 959.125,659.379 963.725,662.979C968.325,666.579 971.984,667.281 977.725,670.379C981.617,672.48 985.368,676.057 987.725,678.579C991.211,682.31 995.904,684.844 1000.23,685.469C1005.51,686.229 1009.55,686.374 1010,685.745C1004.68,683.433 1001,677.866 983.469,667.465C962.794,651.667 928.817,622.734 926.025,624.175Z" style="fill:rgb(61,177,54);stroke:rgb(61,177,54);stroke-width:1px;"/>
                <g transform="matrix(1,0,0,1,0,-1.125)">
                    <path d="M1003.18,688.258C1009.29,688.275 1012.83,686.455 1015.19,684.227" style="fill:none;stroke:rgb(40,117,36);stroke-width:1px;"/>
                </g>
            </g>
            <g transform="matrix(0.928891,0.370354,-0.370354,0.928891,323.178,-311.451)">
                <path d="M926.025,624.117C939.179,629.143 993.979,680.583 1010,685.917C981.688,696.25 922.467,637.734 926.025,624.117Z" style="fill:rgb(40,117,36);stroke:rgb(40,117,36);stroke-width:1px;"/>
                <path d="M926.025,624.175C931.25,629.53 937.963,634.429 940.525,639.979C942.925,645.179 945.725,648.779 951.725,651.779C957.725,654.779 959.125,659.379 963.725,662.979C968.325,666.579 971.984,667.281 977.725,670.379C981.617,672.48 985.368,676.057 987.725,678.579C991.211,682.31 995.904,684.844 1000.23,685.469C1005.51,686.229 1009.55,686.374 1010,685.745C1004.68,683.433 1001,677.866 983.469,667.465C962.794,651.667 928.817,622.734 926.025,624.175Z" style="fill:rgb(61,177,54);stroke:rgb(61,177,54);stroke-width:1px;"/>
                <g transform="matrix(1,0,0,1,0,-1.125)">
                    <path d="M1003.18,688.258C1009.29,688.275 1012.83,686.455 1015.19,684.227" style="fill:none;stroke:rgb(40,117,36);stroke-width:1px;"/>
                </g>
            </g>
            <g>
                <path d="M926.025,624.117C939.179,629.143 993.979,680.583 1010,685.917C981.688,696.25 922.467,637.734 926.025,624.117Z" style="fill:rgb(40,117,36);stroke:rgb(40,117,36);stroke-width:1px;"/>
                <path d="M926.025,624.175C931.25,629.53 937.963,634.429 940.525,639.979C942.925,645.179 945.725,648.779 951.725,651.779C957.725,654.779 959.125,659.379 963.725,662.979C968.325,666.579 971.984,667.281 977.725,670.379C981.617,672.48 985.368,676.057 987.725,678.579C991.211,682.31 995.904,684.844 1000.23,685.469C1005.51,686.229 1009.55,686.374 1010,685.745C1004.68,683.433 1001,677.866 983.469,667.465C962.794,651.667 928.817,622.734 926.025,624.175Z" style="fill:rgb(61,177,54);stroke:rgb(61,177,54);stroke-width:1px;"/>
                <g transform="matrix(1,0,0,1,0,-1.125)">
                    <path d="M1003.18,688.258C1009.29,688.275 1012.83,686.455 1015.19,684.227" style="fill:none;stroke:rgb(40,117,36);stroke-width:1px;"/>
                </g>
            </g>
        </g>
    </g>
</svg>
