<?xml version="1.0" encoding="UTF-8" standalone="no"?>
<!DOCTYPE svg PUBLIC "-//W3C//DTD SVG 1.1//EN" "http://www.w3.org/Graphics/SVG/1.1/DTD/svg11.dtd">
<svg width="100%" height="100%" viewBox="0 0 203 108" version="1.1" xmlns="http://www.w3.org/2000/svg" xmlns:xlink="http://www.w3.org/1999/xlink" xml:space="preserve" xmlns:serif="http://www.serif.com/" style="fill-rule:evenodd;clip-rule:evenodd;stroke-linejoin:round;stroke-miterlimit:1.41421;">
    <g transform="matrix(1,0,0,1,-141,-172)">
        <g transform="matrix(1,0,0,1,-0.333328,-40.3333)">
            <rect x="141.8" y="212.514" width="201.845" height="106.916" style="fill:white;"/>
            <rect x="233.022" y="212.764" width="20.333" height="106.667" style="fill:rgb(207,20,43);"/>
            <g transform="matrix(6.1149e-17,-1,1.89229,1.15712e-16,-260.811,509.286)">
                <rect x="233.022" y="212.764" width="20.333" height="106.667" style="fill:rgb(207,20,43);"/>
            </g>
            <g transform="matrix(0.919364,0,0,-0.781757,158.086,473.658)">
                <path d="M201.834,212.764L201.834,244.162L157.334,244.162L201.834,212.764Z" style="fill:rgb(0,36,125);"/>
            </g>
            <g transform="matrix(0.919364,0,0,0.781757,158.086,58.6021)">
                <path d="M201.834,212.764L201.834,244.162L157.334,244.162L201.834,212.764Z" style="fill:rgb(0,36,125);"/>
            </g>
            <g transform="matrix(-0.919364,0,0,-0.781757,327.359,473.658)">
                <path d="M201.834,212.764L201.834,244.162L157.334,244.162L201.834,212.764Z" style="fill:rgb(0,36,125);"/>
            </g>
            <g transform="matrix(-0.919364,0,0,0.781757,327.359,58.6021)">
                <path d="M201.834,212.764L201.834,244.162L157.334,244.162L201.834,212.764Z" style="fill:rgb(0,36,125);"/>
            </g>
            <g transform="matrix(1.42872,0,0,1.17517,-62.53,32.4989)">
                <path d="M201.834,212.764L201.834,244.162L157.334,244.162L201.834,212.764Z" style="fill:rgb(0,36,125);"/>
            </g>
            <g transform="matrix(1.42872,0,0,-1.17517,-62.53,499.446)">
                <path d="M201.834,212.764L201.834,244.162L157.334,244.162L201.834,212.764Z" style="fill:rgb(0,36,125);"/>
            </g>
            <g transform="matrix(1,0,0,1,0,2.25065)">
                <path d="M284.346,280.532L295.745,280.532L343.645,309.7L343.645,317.18L284.346,280.532Z" style="fill:rgb(207,20,43);"/>
            </g>
            <g transform="matrix(-1,0,0,-1,485.445,530.009)">
                <path d="M284.346,280.532L295.745,280.532L343.645,309.7L343.645,317.18L284.346,280.532Z" style="fill:rgb(207,20,43);"/>
            </g>
            <g transform="matrix(1,0,0,-1,-141.99,599.962)">
                <path d="M284.346,280.532L296.745,280.532L360.037,317.246L347.645,317.18L284.346,280.532Z" style="fill:rgb(207,20,43);"/>
            </g>
            <g transform="matrix(-1.42872,0,0,-1.17517,548.53,499.446)">
                <path d="M201.834,212.764L201.834,244.162L157.334,244.162L201.834,212.764Z" style="fill:rgb(0,36,125);"/>
            </g>
            <g transform="matrix(-1.42872,0,0,1.17517,548.53,32.4989)">
                <path d="M201.834,212.764L201.834,244.162L157.334,244.162L201.834,212.764Z" style="fill:rgb(0,36,125);"/>
            </g>
            <g transform="matrix(-1,0,0,1,627.991,-68.0173)">
                <path d="M284.346,280.532L296.745,280.532L360.037,317.246L347.645,317.18L284.346,280.532Z" style="fill:rgb(207,20,43);"/>
            </g>
        </g>
    </g>
</svg>
